HIERARCHY
ROOT Hips
{
	OFFSET -14.64140 90.27770 -84.91600
	CHANNELS 6 Xposition Yposition Zposition Zrotation Xrotation Yrotation
	JOINT Spine
	{
		OFFSET 0.00000 13.20850 -1.60436
		CHANNELS 3 Zrotation Xrotation Yrotation
		JOINT Spine1
		{
			OFFSET 0.00000 8.61716 0.00000
			CHANNELS 3 Zrotation Xrotation Yrotation
			JOINT Spine2
			{
				OFFSET 0.00000 8.61717 0.00000
				CHANNELS 3 Zrotation Xrotation Yrotation
				JOINT Spine3
				{
					OFFSET 0.00000 8.61717 0.00000
					CHANNELS 3 Zrotation Xrotation Yrotation
					JOINT Neck
					{
						OFFSET 0.00000 11.07920 1.10792
						CHANNELS 3 Zrotation Xrotation Yrotation
						JOINT Neck1
						{
							OFFSET 0.00000 7.08032 0.00000
							CHANNELS 3 Zrotation Xrotation Yrotation
							JOINT Head
							{
								OFFSET 0.00000 7.08031 0.00000
								CHANNELS 3 Zrotation Xrotation Yrotation
								End site
								{
									OFFSET 0.00000 0.00000 0.00000
								}
							}
						}
					}
					JOINT RightShoulder
					{
						OFFSET -0.01000 7.91373 5.19711
						CHANNELS 3 Zrotation Xrotation Yrotation
						JOINT RightArm
						{
							OFFSET -18.41580 0.00000 0.00000
							CHANNELS 3 Zrotation Xrotation Yrotation
							JOINT RightForeArm
							{
								OFFSET -29.11090 0.00000 0.00000
								CHANNELS 3 Zrotation Xrotation Yrotation
								JOINT RightHand
								{
									OFFSET -24.65040 0.00000 0.00000
									CHANNELS 3 Zrotation Xrotation Yrotation
									JOINT RightHandThumb1
									{
										OFFSET -5.35114 -0.85590 3.97906
										CHANNELS 3 Zrotation Xrotation Yrotation
										JOINT RightHandThumb2
										{
											OFFSET -4.52789 0.00000 0.00000
											CHANNELS 3 Zrotation Xrotation Yrotation
											JOINT RightHandThumb3
											{
												OFFSET -2.46976 0.00000 0.00000
												CHANNELS 3 Zrotation Xrotation Yrotation
												End site
												{
													OFFSET 0.00000 0.00000 0.00000
												}
											}
										}
									}
									JOINT RightHandIndex1
									{
										OFFSET -14.26970 0.00000 2.88139
										CHANNELS 3 Zrotation Xrotation Yrotation
										JOINT RightHandIndex2
										{
											OFFSET -5.48836 0.00000 0.00000
											CHANNELS 3 Zrotation Xrotation Yrotation
											JOINT RightHandIndex3
											{
												OFFSET -3.01859 0.00000 0.00000
												CHANNELS 3 Zrotation Xrotation Yrotation
												End site
												{
													OFFSET 0.00000 0.00000 0.00000
												}
											}
										}
									}
									JOINT RightHandMiddle1
									{
										OFFSET -14.26970 0.00000 -0.09147
										CHANNELS 3 Zrotation Xrotation Yrotation
										JOINT RightHandMiddle2
										{
											OFFSET -6.17441 0.00000 0.00000
											CHANNELS 3 Zrotation Xrotation Yrotation
											JOINT RightHandMiddle3
											{
												OFFSET -3.56743 0.00000 0.00000
												CHANNELS 3 Zrotation Xrotation Yrotation
												End site
												{
													OFFSET 0.00000 0.00000 0.00000
												}
											}
										}
									}
									JOINT RightHandRing1
									{
										OFFSET -12.69180 0.00000 -3.06433
										CHANNELS 3 Zrotation Xrotation Yrotation
										JOINT RightHandRing2
										{
											OFFSET -5.62556 0.00000 0.00000
											CHANNELS 3 Zrotation Xrotation Yrotation
											JOINT RightHandRing3
											{
												OFFSET -3.56744 0.00000 0.00000
												CHANNELS 3 Zrotation Xrotation Yrotation
												End site
												{
													OFFSET 0.00000 0.00000 0.00000
												}
											}
										}
									}
									JOINT RightHandPinky1
									{
										OFFSET -11.11390 0.00000 -6.03719
										CHANNELS 3 Zrotation Xrotation Yrotation
										JOINT RightHandPinky2
										{
											OFFSET -4.52789 0.00000 0.00000
											CHANNELS 3 Zrotation Xrotation Yrotation
											JOINT RightHandPinky3
											{
												OFFSET -2.46976 0.00000 0.00000
												CHANNELS 3 Zrotation Xrotation Yrotation
												End site
												{
													OFFSET 0.00000 0.00000 0.00000
												}
											}
										}
									}
								}
							}
						}
					}
					JOINT LeftShoulder
					{
						OFFSET 0.01000 7.91373 5.19711
						CHANNELS 3 Zrotation Xrotation Yrotation
						JOINT LeftArm
						{
							OFFSET 18.41580 0.00000 0.00000
							CHANNELS 3 Zrotation Xrotation Yrotation
							JOINT LeftForeArm
							{
								OFFSET 29.11090 0.00000 0.00000
								CHANNELS 3 Zrotation Xrotation Yrotation
								JOINT LeftHand
								{
									OFFSET 24.65040 0.00000 0.00000
									CHANNELS 3 Zrotation Xrotation Yrotation
									JOINT LeftHandThumb1
									{
										OFFSET 5.35114 -0.85590 3.97906
										CHANNELS 3 Zrotation Xrotation Yrotation
										JOINT LeftHandThumb2
										{
											OFFSET 4.52789 0.00000 0.00000
											CHANNELS 3 Zrotation Xrotation Yrotation
											JOINT LeftHandThumb3
											{
												OFFSET 2.46977 0.00000 0.00000
												CHANNELS 3 Zrotation Xrotation Yrotation
												End site
												{
													OFFSET 0.00000 0.00000 0.00000
												}
											}
										}
									}
									JOINT LeftHandIndex1
									{
										OFFSET 14.26970 0.00000 2.88139
										CHANNELS 3 Zrotation Xrotation Yrotation
										JOINT LeftHandIndex2
										{
											OFFSET 5.48836 0.00000 0.00000
											CHANNELS 3 Zrotation Xrotation Yrotation
											JOINT LeftHandIndex3
											{
												OFFSET 3.01859 0.00000 0.00000
												CHANNELS 3 Zrotation Xrotation Yrotation
												End site
												{
													OFFSET 0.00000 0.00000 0.00000
												}
											}
										}
									}
									JOINT LeftHandMiddle1
									{
										OFFSET 14.26970 0.00000 -0.09147
										CHANNELS 3 Zrotation Xrotation Yrotation
										JOINT LeftHandMiddle2
										{
											OFFSET 6.17440 0.00000 0.00000
											CHANNELS 3 Zrotation Xrotation Yrotation
											JOINT LeftHandMiddle3
											{
												OFFSET 3.56744 0.00000 0.00000
												CHANNELS 3 Zrotation Xrotation Yrotation
												End site
												{
													OFFSET 0.00000 0.00000 0.00000
												}
											}
										}
									}
									JOINT LeftHandRing1
									{
										OFFSET 12.69180 0.00000 -3.06433
										CHANNELS 3 Zrotation Xrotation Yrotation
										JOINT LeftHandRing2
										{
											OFFSET 5.62556 0.00000 0.00000
											CHANNELS 3 Zrotation Xrotation Yrotation
											JOINT LeftHandRing3
											{
												OFFSET 3.56744 0.00000 0.00000
												CHANNELS 3 Zrotation Xrotation Yrotation
												End site
												{
													OFFSET 0.00000 0.00000 0.00000
												}
											}
										}
									}
									JOINT LeftHandPinky1
									{
										OFFSET 11.11390 0.00000 -6.03719
										CHANNELS 3 Zrotation Xrotation Yrotation
										JOINT LeftHandPinky2
										{
											OFFSET 4.52789 0.00000 0.00000
											CHANNELS 3 Zrotation Xrotation Yrotation
											JOINT LeftHandPinky3
											{
												OFFSET 2.46976 0.00000 0.00000
												CHANNELS 3 Zrotation Xrotation Yrotation
												End site
												{
													OFFSET 0.00000 0.00000 0.00000
												}
											}
										}
									}
								}
							}
						}
					}
					JOINT pCube4
					{
						OFFSET 0.00000 10.91090 1.10792
						CHANNELS 3 Zrotation Xrotation Yrotation
						End site
						{
							OFFSET 0.00000 0.00000 0.00000
						}
					}
				}
			}
		}
	}
	JOINT RightUpLeg
	{
		OFFSET -9.98441 0.00000 0.00000
		CHANNELS 3 Zrotation Xrotation Yrotation
		JOINT RightLeg
		{
			OFFSET 0.00000 -42.11790 0.00000
			CHANNELS 3 Zrotation Xrotation Yrotation
			JOINT RightFoot
			{
				OFFSET 0.00000 -45.00020 -0.00001
				CHANNELS 3 Zrotation Xrotation Yrotation
				JOINT RightForeFoot
				{
					OFFSET 0.00000 -3.74820 0.00000
					CHANNELS 3 Zrotation Xrotation Yrotation
					JOINT RightToeBase
					{
						OFFSET 0.00000 0.06325 14.43120
						CHANNELS 3 Zrotation Xrotation Yrotation
						End site
						{
							OFFSET 0.00000 0.00000 0.00000
						}
					}
				}
			}
		}
	}
	JOINT LeftUpLeg
	{
		OFFSET 9.98441 0.00000 0.00000
		CHANNELS 3 Zrotation Xrotation Yrotation
		JOINT LeftLeg
		{
			OFFSET 0.00000 -42.11800 0.00000
			CHANNELS 3 Zrotation Xrotation Yrotation
			JOINT LeftFoot
			{
				OFFSET 0.00000 -45.00070 0.00000
				CHANNELS 3 Zrotation Xrotation Yrotation
				JOINT LeftForeFoot
				{
					OFFSET 0.00000 -3.74824 0.00000
					CHANNELS 3 Zrotation Xrotation Yrotation
					JOINT LeftToeBase
					{
						OFFSET 0.00000 0.06325 14.43110
						CHANNELS 3 Zrotation Xrotation Yrotation
						End site
						{
							OFFSET 0.00000 0.00000 0.00000
						}
					}
				}
			}
		}
	}
}
MOTION
Frames: 4
Frame Time: 0.050000
0.006174573111282619 -0.003772984559732493 0.0470626410310245 -0.02202637001542817 0.002275904416025031 0.04714983760565407 -2.403803471228953 1.7686101081098027 -0.7571684576097047 -0.9019644072447878 3.6398932814775957 0.42001723115555223 -1.1984753898937617 -1.6323152783222712 -0.046387960202446545 -0.3773486079424135 0.0379746468544145 -0.699225699056766 -0.18033200867719196 12.807486206733719 0.26687405623306953 -0.2081986890170433 0.1978302034613029 -2.198932686988729 -0.2065885083372775 -14.53538483893805 -0.08460713183182297 -5.670955685983716 2.1586146775508643 -13.153637289602932 61.81257641495272 0.37973462738247465 26.12679867581921 0.49325721075636386 -2.995359885736117 99.2849566753248 9.76763753803989 -0.359891636713617 -0.6067579690904193 4.529917069821114 -0.12592029309143507 -1.5791717495051096 0.009710751111766423 0.011765821565194092 -56.218853410515536 -0.0036881283916391293 0.011088196388851543 -56.22234252681862 -38.80215939638758 0.04430239715853183 -0.04721146366182449 0.005604833939203078 -0.03487373134760925 -0.040930425088449574 -0.016067630159103473 -0.024174005855774786 0.028957143524946063 -36.64574115566084 -0.013107420159665968 -0.019937154205191147 -0.015966974956411188 0.009292500931156833 0.0030457382130111782 -0.035475508030733155 0.006451334179735363 0.04077963408800167 -19.710823450084234 -0.009120581721264441 -0.03041442640817067 -0.03914530778836484 0.047434694897059475 0.0056116933286274595 -0.004551672202672334 -0.005370244267893752 -0.0012279872322187018 24.06021197747248 0.018171499486170452 -0.01835601346940528 28.86496961446106 -0.032307959091060975 -0.013040280542017715 28.886405687382883 0.002355660750969689 -0.03971936201051696 6.204580491041365 1.52042145782259 12.488793778641655 -63.746158263592534 13.662713242894647 -19.51103054384669 -3.6198556326188958 -7.818804581306689 -85.6582676898511 -3.5388400809646736 1.694860501182408 -3.0495612209138647 -0.4839886834954747 0.0817762589965462 -8.132474340636458 -0.03281748691664194 -0.024146448332033946 44.559856878429414 -0.028589014878980464 0.02912672143650783 44.56825101907992 12.455054776601475 -0.015505782762929105 0.024316374480746136 0.020245775393276693 -0.002068655234023539 0.019553873895841366 0.0330766497511343 0.026897357287069608 0.04984997385077716 11.059605835651237 -0.01641850861392803 0.0272132030538624 0.01254911025689125 -0.04529829278932933 -0.00629908069515633 -0.009942799039771322 -0.009517867828950003 0.02993002697489061 4.768071191560348 -0.04706423367710531 -0.030802354322648058 -0.038143610153473125 -0.0010435027540483938 -0.019277469210183827 -0.031281046633388904 0.0014072297956026932 0.010814870098999963 -5.6208437833926395 0.04007068941323375 0.001548331972031208 -6.723878224076586 0.027955943757589922 -0.002512669608276471 -6.689139368177487 0.027179579506370746 -0.027282069934783208 0.005644498749477266 -0.036281888291788286 -0.04626439961949981 8.078968114637126 3.532348486441854 -19.196486639111935 -0.011386489368795822 10.358392992313904 -0.01060101594795555 -5.573675249409197 -15.670671458162394 3.175111880466293 -0.03479614179813245 -0.01774949734659694 0.01322551670250134 0.0296304914014951 4.680654921895348 -0.03766215678774461 12.47736454745587 -8.231372086125239 6.8814406105482835 -0.014189483116734045 46.40722833895737 0.019847262879378737 -4.28986668920042 -14.736930416273221 -3.8461596050530016 0.030868232870654114 0.007086892208218063 -0.03154352864400199 0.04565766443764142 -10.713409543857562 0.016826095693043382 
-0.0035881336122375036 0.009565048915623178 0.01881073913650254 -0.004694414143777236 -0.0363891016351453 -0.029700403285656908 -2.529976762140385 2.28020755615778 -0.7215060978007257 -0.965510949578037 3.6320177233794144 0.3866301323549157 -1.176421644970304 -1.4268621564394783 -0.16044176796506998 -0.37787284474049204 0.0452337211635075 -0.6685064555543934 -0.24599824617857657 12.521595686642723 0.2502000861228086 -0.19007575842392166 0.00839895568521764 -2.160939430866948 -0.22151061176486575 -14.66686343910471 -0.13585669777658171 -4.948247120043198 1.97924538250885 -12.957742315015048 61.97830463587069 0.733225623682539 25.617052027067892 1.2258243321656752 -2.126629685672807 97.31265118510392 10.479828487253307 -0.37192449361484853 -1.0746241441974176 4.566322049750708 -0.12499133341477607 -1.583821681176325 -0.015544364089390061 -0.037866787616377594 -56.19935222346778 0.026093139731947875 0.0336033669221392 -56.26701721084843 -38.76436995693386 -0.020019470779658523 -0.045396420068306735 0.011153677088514119 0.000422165402535932 0.04391595398560298 -0.02859168603213446 0.01866881862513908 0.011601602243135077 -36.69511571860379 -0.03850109841262556 -0.010588766529697587 0.01762774413864057 0.02730664447274616 0.01645969937967501 0.008097925622332764 0.04535298157383709 0.025773879681948424 -19.781468791878297 0.009612089594632866 -0.005431143388406713 -0.04372766994441385 -0.01802540053426666 0.02407904606245515 0.023347034121199272 0.010724246157965979 0.029909872675069962 24.015052064960237 -0.004776898783642135 0.016066312903219606 28.88466093066354 -0.024596889272367882 -0.006473703340970694 28.882928116204916 -0.014329105425277027 -0.045043149366485 5.846941322860975 1.4639923711118907 12.302584756346656 -62.930182117994 13.462999622521748 -20.751411994650034 -3.8353830038150045 -6.808161725484105 -86.68601598555621 -4.063629078881786 1.5595031468400196 -2.9860182321289552 -0.5105427891694295 0.06313116014146787 -8.153900590728105 -0.005146157679973709 -0.04602590067521925 44.6066919263469 0.01651483859660616 -0.043926772875674626 44.60339584058945 12.449841617581924 0.01089055664908429 0.033888720351954706 -0.0005920381594725196 0.028624765218451004 0.0060954791180020985 0.011579235764193292 -0.03377247042634367 0.0021623825282013577 11.132629360622056 0.03465814379540036 -0.048687498912340234 0.0022013019746422416 0.03236265869710823 -0.013421616994349822 0.0468494045731241 0.03917341596745899 -0.04434503928765916 4.783978295425136 -0.02344418035846609 0.02881115461494192 -0.035434702475230825 -0.018314788819709448 -0.04699116726999493 0.0426810702706493 -0.007490122020066796 -0.012499461288625531 -5.61775586409889 0.0095350087025209 -0.014342113936529762 -6.74316794303968 0.011521292130523454 0.037537220131706926 -6.716244586506645 0.014259591551197695 -0.016312889739399147 -0.03607949956912555 -0.010384118572388655 -0.015570536280322891 8.03580741334587 3.445372448285819 -19.230401773089017 0.0040184845050956555 10.368568530105144 -0.034127609235226244 -5.590413849364859 -15.616630784905384 3.200639721826314 -0.017017490495800626 0.009767420163522372 0.01762713024316209 0.0349204109187998 4.677986203342906 0.0016623515231580393 12.48605692466947 -8.242000604751055 6.932383053283444 -0.027410147406761988 46.41870398036936 0.001282790049919652 -4.326897917771111 -14.76909916242851 -3.8542817537442615 -0.039392996179012214 0.005748559808283458 -0.020854524414166957 0.03791331918882359 -10.762647512248474 0.01416825700209515 
-0.02507988953222448 0.04310636909939872 0.04176863742214529 -0.034124245818406014 0.002970171368450333 0.03455716060096133 -2.839656545347495 2.9580830674910774 -0.6845991647624644 -0.9872238005727917 3.6783013099934188 0.3628399001887184 -1.1632223100908026 -1.2426365167168978 -0.18764400657288652 -0.2984762987361555 0.12751392400415168 -0.6923490347171234 -0.3595269377426557 12.048935977205026 0.24799438816995 -0.23479696497645214 -0.13119968312617475 -2.2342990576204365 -0.19840645129764115 -14.767454889768286 -0.11959001896928288 -4.098162601491582 1.7224996247299027 -12.693607999422925 62.11460078349008 1.9365470057636505 24.864155880806635 1.6850242975556304 -1.156379106385936 94.8104707637609 11.48421016794593 -0.3296545175036981 -1.6680885253848678 4.481792188619237 -0.1687868967203674 -1.6409766861420965 0.02630045855775647 -0.026204922555966466 -56.224794309299 -0.04554885219770379 -0.0434645130777859 -56.224545494768456 -38.76132386827967 -0.04634067399507436 -0.0011067153457491282 -0.048081528438414206 -0.03732957625911795 -0.042834672001033545 0.015351232786944667 -0.01041179784862634 -0.034225766452955865 -36.69640265584987 -0.0303426558857952 -0.045355452195770266 -0.023875160431377506 0.03402820747217076 0.04047947982893747 -0.035362854082993715 0.045735722230589027 0.02467783337662417 -19.715292756817778 -0.038547792891689754 0.00220279669940075 -0.015620946643606205 0.041146589348813704 0.002553379187184891 -0.03502862822419632 -0.04005718578310881 -0.027119989372259273 24.06029986140565 -0.03203413318135876 0.009285631514832887 28.840652727495723 -0.002254675301446599 0.04716064207980459 28.84361291256663 0.0021886101203151204 0.02871119382133756 5.068307547404446 1.343253016121948 12.142074803770369 -62.004897980449535 14.111666120518722 -21.43617819900622 -3.397377145453543 -6.038840053147093 -86.64567690218811 -4.783379880085004 1.5276223443711625 -2.858220576337982 -0.49543804738450425 0.11765293317179416 -8.116906064722627 -0.0164244874874829 -0.017246154004860334 44.52137158778119 0.02495595369706741 0.032199492556644616 44.57739406001696 12.458655728233435 -0.029706833748599663 0.032223075991198516 0.017753003499612906 -0.02098364250715925 -0.016185217816540094 -0.00754217806213891 -0.02284042938513188 -0.03360515093800557 11.110746813221391 0.038117047191382106 -0.027957045535178925 -0.04094346248452453 -0.019767548222836863 0.030148642670063095 -0.031534920454852004 -0.017093045848340323 -0.001788300992107505 4.796696048007069 0.01673587952214278 -0.005465101178108538 -0.02150845944117121 -0.022767106182071957 0.037939067599799155 0.02444477226909922 0.012325010459288832 -0.04150896391891887 -5.617495246725763 0.0018042259165071822 0.02275890590732857 -6.701105822565421 -0.01772203872910824 -0.007130673784103792 -6.745348357785865 0.026715814599715178 -0.04356076505432385 0.010902117689082086 0.013125468927307406 -0.01652538734563501 8.054832667556925 3.515770300998705 -19.208103589637176 -0.0021575501502194973 10.382074487816208 0.040506220801306406 -5.646911081631085 -15.658916096188193 3.214432553824204 0.0063101213782377225 -0.03901714166601738 -0.022543700516426228 0.028081504632467245 4.737820588320876 0.01786752042916751 12.487874295789256 -8.269275468636726 6.927702150572038 0.03829351120962656 46.41839685260116 -0.005568696675806616 -4.3427348340399545 -14.726818045214088 -3.8695789697568626 -0.02097648998942153 -0.04065817826402558 0.011892165799539505 -0.043887875324108636 -10.729655232522976 0.04829206843576267 
0.03622487877302735 0.024169479738862854 -0.04833734653780395 0.007039116796190997 -0.020306256496737746 -0.0001147680158175092 -3.2439777716237908 3.743498392349329 -0.6754553714523144 -0.9822625817147561 3.6198314163317 0.4141603265596214 -1.1202223190692755 -0.9976019762674346 -0.22905772544913994 -0.2595895996027949 0.2546591719432868 -0.7345468060726107 -0.40085501195445844 11.543916479315081 0.24378553961707855 -0.3505215612455197 -0.32328109026624346 -2.648206156020109 -0.26126726338827744 -15.016835541985698 -0.13607928006484377 -2.931035366808497 1.4431748884882978 -12.326892279182255 61.84310133430097 3.3967595863659494 24.54448806020225 1.7808739061629868 -0.16188973727029415 92.35523977140203 12.647714311688278 -0.3912033472370287 -2.572496356498863 4.545569280362699 -0.15612934924492616 -1.5998694472529575 -0.02722772353317896 -0.0372853556632113 -56.249154068421376 -0.014478912037435943 -0.030774955875390586 -56.27562597419971 -38.814921607699596 0.034286454724417624 0.0029638351912742457 0.005283397137130416 0.018400477224809045 0.03217059735222254 -0.04342089177241494 -0.04668896307885317 -0.04762154244677531 -36.73618147289911 0.022933880168302983 -0.04149856978700717 -0.024814406215651574 0.03425015701574617 -0.001850230960226011 0.01111351786988489 0.027700250843785915 0.018517333805128124 -19.757230288826918 0.023452565892104614 0.0005641596506005543 0.009088975329147656 0.04010486550428925 0.023736951512349277 0.015169032003093297 -0.0171652222615239 -0.011884064173147052 24.09271707265231 -0.01933615585827523 0.012231042095288337 28.84629414551168 0.03975524445948594 -0.02208812619012176 28.8918445101375 0.028738175080955865 0.02085060701725977 3.9533471847074266 1.156149679925938 11.806053620349967 -60.94918920517975 15.088951235058012 -21.871928059130624 -2.4397521271979485 -5.605528056677115 -85.63578077842052 -5.745520273069214 1.446041932981377 -2.494973380211966 -0.47455679010422097 0.06424480939237863 -8.13026962860631 0.0395183492589493 0.014158144774135626 44.5916976400053 -0.009256719999988693 -0.010455027324596066 44.550949276066575 12.449966853637356 0.029192597292166764 -0.006485190778750752 -0.0019849476710061182 0.0418304372415265 0.0026318349776651073 -0.025571957676405712 -0.04282967170276024 -0.038976013883925915 11.115009314964425 0.01721751093287413 0.016456725718578542 0.00746684119742623 0.025405632261436207 0.031458816827583176 0.03193135369034877 -0.0364388797772633 -0.029113117840355973 4.72733271034013 -0.017413645945073046 -0.03721659419263019 -0.03054391436537867 0.03738068550936936 -0.0037022423418331444 0.023601135960283518 -0.0014396961681497943 -0.007082199452501412 -5.582693649737563 -0.02650695814940014 -0.013236746366977083 -6.7371888268858084 0.0294828976756212 0.02508377045158252 -6.683475409405967 -0.03660779972384738 0.009944218554530076 -0.03472571556421728 -0.02830939013971 0.015368122768510786 8.092008212397964 3.498659238164295 -19.256739791939612 0.004001808595093845 10.434469273039564 0.059297105719114465 -5.626170133215216 -15.697165376163404 3.2231529571940336 -0.04669421160243597 -0.035277415375927566 0.01185629195546434 -0.024219899601814157 4.657004237698283 -0.002553500426894803 12.429042485785985 -8.21423142730788 6.892233415926142 -0.0011336753770531014 46.421182925481716 0.020276440397025405 -4.333442794498689 -14.747249806329412 -3.8240819324429265 0.011360992694745053 -0.01694410629649716 -0.03555318772039029 -0.008885834147676484 -10.757843659779859 -0.009252706148261193 
